<svg height="512" viewBox="0 0 64 64" width="512" xmlns="http://www.w3.org/2000/svg"><path d="m45 32a20.861 20.861 0 0 1 -2.81 10.5c-.1.17-.2.34-.3.5a20.282 20.282 0 0 1 -2.89 3.69c-.05.06-.1.11-.15.16a20.636 20.636 0 0 1 -1.85 1.64 19.3 19.3 0 0 1 -2.5 1.7 21 21 0 1 1 0-36.38 19.3 19.3 0 0 1 2.5 1.7 20.636 20.636 0 0 1 1.85 1.64c.05.05.1.1.15.16a18.372 18.372 0 0 1 1.49 1.69 20.361 20.361 0 0 1 1.7 2.5 20.868 20.868 0 0 1 2.1 5.06 21.241 21.241 0 0 1 .71 5.44z" fill="#57565c"/><circle cx="24" cy="32" fill="#e6e7e8" r="13"/><path d="m17.94 28.5a1.01 1.01 0 0 1 -1.37.37 1 1 0 0 1 1-1.74 1.01 1.01 0 0 1 .37 1.37z" fill="#bcbec0"/><path d="m17.57 36.87a1 1 0 0 1 -1-1.74 1 1 0 1 1 1 1.74z" fill="#bcbec0"/><path d="m31.43 35.13a1 1 0 0 1 -1 1.74 1 1 0 1 1 1-1.74z" fill="#bcbec0"/><circle cx="24" cy="24" fill="#bcbec0" r="1"/><path d="m30.06 28.5a1.01 1.01 0 0 1 .37-1.37 1 1 0 0 1 1 1.74 1.01 1.01 0 0 1 -1.37-.37z" fill="#bcbec0"/><circle cx="24" cy="40" fill="#bcbec0" r="1"/><circle cx="24" cy="32" fill="#bcbec0" r="3"/><g fill="#57565c"><path d="m61 47v2a4 4 0 0 1 -4 4h-3v-42h3a4 4 0 0 1 4 4z"/><path d="m54 11v5l-4 2-4-2v-5z"/><path d="m54 16v8l-4 2-4-2v-8l4 2z"/><path d="m54 45v8h-8v-8l4 2z"/><path d="m54 31v7l-4 2-4-2v-7l4 2z"/><path d="m54 24v7l-4 2-4-2v-7l4 2z"/><path d="m54 38v7l-4 2-4-2v-7l4 2z"/><path d="m43 11a4 4 0 0 0 -4 4v34a4 4 0 0 0 4 4h3v-42z"/></g><path d="m24 36a4 4 0 1 1 4-4 4 4 0 0 1 -4 4zm0-6a2 2 0 1 0 2 2 2 2 0 0 0 -2-2z" fill="#acabb1"/><path d="m24 46a14 14 0 1 1 14-14 14.015 14.015 0 0 1 -14 14zm0-26a12 12 0 1 0 12 12 12.013 12.013 0 0 0 -12-12z" fill="#acabb1"/><path d="m39.557 46.142-2.829-2.828-1.415 1.414 2.087 2.085a20.061 20.061 0 0 1 -2.55 1.978l-1.483-2.568-1.732 1 1.485 2.571a19.641 19.641 0 0 1 -2.983 1.243l-.77-2.875-1.932.518.77 2.872a20.145 20.145 0 0 1 -3.2.4v-2.952h-2.005v2.949a19.837 19.837 0 0 1 -3.2-.4l.768-2.867-1.932-.518-.768 2.867a19.91 19.91 0 0 1 -2.978-1.247l1.478-2.559-1.732-1-1.477 2.558a20.09 20.09 0 0 1 -2.552-1.972l2.081-2.081-1.414-1.414-2.083 2.084a20.09 20.09 0 0 1 -1.972-2.552l2.558-1.477-1-1.732-2.559 1.473a19.91 19.91 0 0 1 -1.247-2.978l2.867-.768-.518-1.932-2.867.766a19.837 19.837 0 0 1 -.4-3.2h2.947v-2h-2.949a19.837 19.837 0 0 1 .4-3.2l2.867.768.518-1.932-2.867-.768a19.91 19.91 0 0 1 1.247-2.978l2.559 1.478 1-1.732-2.556-1.479a20.09 20.09 0 0 1 1.972-2.552l2.081 2.081 1.414-1.414-2.081-2.081a20.09 20.09 0 0 1 2.552-1.972l1.477 2.558 1.732-1-1.478-2.559a19.91 19.91 0 0 1 2.978-1.247l.768 2.867 1.932-.518-.766-2.867a19.837 19.837 0 0 1 3.2-.4v2.947h2v-2.951a20.145 20.145 0 0 1 3.2.4l-.77 2.872 1.932.518.77-2.875a19.641 19.641 0 0 1 2.983 1.243l-1.485 2.571 1.732 1 1.483-2.568a20.061 20.061 0 0 1 2.55 1.978l-2.086 2.085 1.415 1.414 2.829-2.828-.553-.553.712-.7a21.8 21.8 0 0 0 -15.712-6.606 22 22 0 0 0 0 44 21.8 21.8 0 0 0 15.716-6.611l-.712-.7z" fill="#3e3d42"/><path d="m57 10h-14a5.006 5.006 0 0 0 -5 5v34a5.006 5.006 0 0 0 5 5h14a5.006 5.006 0 0 0 5-5v-34a5.006 5.006 0 0 0 -5-5zm-4 34.382-3 1.5-3-1.5v-4.764l2.553 1.282a1 1 0 0 0 .894 0l2.553-1.282zm0-7-3 1.5-3-1.5v-4.764l2.553 1.282a1 1 0 0 0 .894 0l2.553-1.282zm0-7-3 1.5-3-1.5v-4.764l2.553 1.282a1 1 0 0 0 .894 0l2.553-1.282zm0-7-3 1.5-3-1.5v-5.764l2.553 1.282a1 1 0 0 0 .894 0l2.553-1.282zm-6 23.236 2.553 1.282a1 1 0 0 0 .894 0l2.553-1.282v5.382h-6zm6-31.236-3 1.5-3-1.5v-3.382h6zm-13 33.618v-1h2v-2h-2v-2h2v-2h-2v-2h2v-2h-2v-2h2v-2h-2v-2h2v-2h-2v-2h2v-2h-2v-2h2v-2h-2v-2h2v-2h-2v-2h2v-2h-1.816a3 3 0 0 1 2.816-2h2v40h-2a3 3 0 0 1 -3-3zm17 3h-2v-40h2a3 3 0 0 1 2.816 2h-1.816v2h2v2h-2v2h2v2h-2v2h2v2h-2v2h2v2h-2v2h2v2h-2v2h2v2h-2v2h2v2h-2v2h2v2h-2v2h2v1a3 3 0 0 1 -3 3z" fill="#3e3d42"/></svg>